inDegrees=yes
name=ik_S48_A09_T01
DataType=double
version=3
OpenSimVersion=4.3-2021-08-27-4bc7ad9
endheader
time	pelvis_tilt	pelvis_list	pelvis_rotation	pelvis_tx	pelvis_ty	pelvis_tz	hip_flexion_r	hip_adduction_r	hip_rotation_r	knee_angle_r	knee_angle_r_beta	ankle_angle_r	subtalar_angle_r	mtp_angle_r	hip_flexion_l	hip_adduction_l	hip_rotation_l	knee_angle_l	knee_angle_l_beta	ankle_angle_l	subtalar_angle_l	mtp_angle_l	lumbar_extension	lumbar_bending	lumbar_rotation	arm_flex_r	arm_add_r	arm_rot_r	elbow_flex_r	pro_sup_r	wrist_flex_r	wrist_dev_r	arm_flex_l	arm_add_l	arm_rot_l	elbow_flex_l	pro_sup_l	wrist_flex_l	wrist_dev_l
0	0	0	0	0	0.9399999999999999	0	0	0	0	0	0	0	0	0	0	0	0	0	0	0	0	0	0	0	0	0	0	0	0	89.99999999963507	0	0	0	0	0	0	89.99999999869995	0	0
0.02	-7.169765446438258	-1.3089906799665	29.62851027829775	0	0.9399999999999999	0	2.612853003758765	-1.230715323653907	-0.8797250054319822	4.047698556578771	0.07064566694052155	0	0	0	2.612853003758765	-1.230715323653907	-0.8797250054319822	4.047698556578771	0.07064566694052155	0	0	0	-1.445065791350916	-4.58285239359963	6.698165558981029	30.32465284496804	-4.211915396286294	-12.26036292201314	50.26422175860057	150.081219040539	0	0	28.61114033736628	-11.59075326456177	-13.15657729424564	37.00374874380034	119.9714810961644	0	0
0.04	-5.8884360484393	-1.528907996394564	30.79478952793635	0	0.9399999999999999	0	36.63985973894143	-15.9233179172401	-11.13559057172306	53.93883871564933	0.9414103302902702	0	0	0	36.63985973894143	-15.9233179172401	-11.13559057172306	53.93883871564933	0.9414103302902702	0	0	0	-2.518275924966086	-3.703588298090115	5.582076231593628	30.3034551949257	-4.165124464042623	-12.34109041896494	50.31770619425001	150.035723452355	0	0	28.5825351883953	-11.59901650152248	-13.14901216456613	37.03931856385172	119.9485383129196	0	0
0.06	-5.900420841492712	-1.526992885529236	30.76325090659036	0	0.9399999999999999	0	36.64643094775969	-15.91281724167656	-11.13398683136877	53.93943337339246	0.9414207090258103	0	0	0	36.64643094775969	-15.91281724167656	-11.13398683136877	53.93943337339246	0.9414207090258103	0	0	0	-2.5298440463207	-3.69202115367164	5.569199802626821	30.32199372135857	-4.117070486777171	-12.37577114952127	50.33140568391833	150.0521067032207	0	0	28.57172649646554	-11.60759297857926	-13.17909298344394	37.04203348056273	119.9300536225711	0	0
0.08	-5.904675036112654	-1.527678480959425	30.7088677730275	0	0.9399999999999999	0	36.65156752844849	-15.90797840975169	-11.13295224495411	53.93992296508055	0.9414292540127579	0	0	0	36.65156752844849	-15.90797840975169	-11.13295224495411	53.93992296508055	0.9414292540127579	0	0	0	-2.536036557827556	-3.686414257838302	5.54265397534901	30.31754083188886	-4.054333571259145	-12.3588890502406	50.3425899223876	150.0999092757707	0	0	28.57718532627698	-11.63832747762804	-13.23588688470003	37.03840030816635	119.9292861957735	0	0
0.1	-5.905548560981492	-1.5330185579503	30.68508847218959	0	0.9399999999999999	0	36.66154674612434	-15.89095004729685	-11.13045132725288	53.94081681025896	0.9414448545541242	-4.215414479387436e-35	0	0	36.66154674612434	-15.89095004729685	-11.13045132725288	53.94081681025896	0.9414448545541242	-4.215414479387436e-35	0	0	-2.542712674566213	-3.685211395613084	5.528489002052275	30.29559746794948	-4.022773784419023	-12.35788772833136	50.37372632821396	150.0960496033718	0	0	28.57013011593526	-11.65082016175429	-13.25411995974615	37.06386238456213	119.9153158753001	0	0
0.12	-5.907865960110336	-1.544178823543287	30.66769723492147	0	0.9399999999999999	0	36.68057957595114	-15.85322294585959	-11.12535555772777	53.94248356184357	0.9414739448570885	0	0	0	36.68057957595114	-15.85322294585959	-11.12535555772777	53.94248356184357	0.9414739448570885	0	0	0	-2.556023523894925	-3.684462570562655	5.516024986831324	30.27682095435826	-4.030204256059657	-12.3221851762984	50.42745009680336	150.0082620275466	0	0	28.58253570501996	-11.68944370388442	-13.26026773713391	37.12850388005575	119.8776334992879	0	0
0.14	-5.896491271446353	-1.549114425550913	30.60662105352758	0	0.9399999999999999	0	36.68022429757985	-15.86163732924696	-11.1259450777536	53.9425097691241	0.9414744022604218	0	0	0	36.68022429757985	-15.86163732924696	-11.1259450777536	53.9425097691241	0.9414744022604218	0	0	0	-2.549460015802262	-3.692812037139874	5.488643663738396	30.28153874008849	-3.95075530310174	-12.26405138449188	50.40613006373295	150.1131554883149	0	0	28.53863157239222	-11.70344123349957	-13.28488359607296	37.09813292538232	119.9034409516292	0	0
0.16	-5.897176763223369	-1.567490263208795	30.61259054077716	0	0.9399999999999999	0	36.6959755381892	-15.81863455422137	-11.12096550253308	53.94380560545151	0.941497018870902	0	0	0	36.6959755381892	-15.81863455422137	-11.12096550253308	53.94380560545151	0.941497018870902	0	0	0	-2.563659406977662	-3.70137970360981	5.482151404358826	30.26007134427433	-3.96170843788563	-12.21124330720894	50.444464947644	149.9694715049714	0	0	28.5611405681854	-11.71785244717954	-13.26823992826938	37.1760292299187	119.8669704457205	0	0
0.18	-5.895030404138276	-1.577075137401349	30.60995951113601	0	0.9399999999999999	0	36.69691908215012	-15.81634576137894	-11.12068663596145	53.94388636908685	0.9414984284622545	0	0	0	36.69691908215012	-15.81634576137894	-11.12068663596145	53.94388636908685	0.9414984284622545	0	0	0	-2.567339682260777	-3.709284030003274	5.464794149506542	30.20827566395554	-3.994232187243643	-12.10330794624657	50.44573915423614	149.9410258654104	0	0	28.55834723462919	-11.72810100468997	-13.2858496841239	37.18189904476917	119.8779753512446	0	0
